<svg width="24" height="20" fill="none" xmlns="http://www.w3.org/2000/svg"><g filter="url(#a)"><path d="M18.5 0h-13C4.673 0 4 .673 4 1.5v9c0 .827.673 1.5 1.5 1.5h13c.827 0 1.5-.673 1.5-1.5v-9c0-.827-.673-1.5-1.5-1.5Zm0 1c.068 0 .133.014.192.039L12 6.839l-6.692-5.8A.498.498 0 0 1 5.5 1h13Zm0 10h-13a.5.5 0 0 1-.5-.5V2.095l6.672 5.783a.5.5 0 0 0 .656 0L19 2.095V10.5a.5.5 0 0 1-.5.5Z" fill="#2196F3"/><path d="m19.02 1.417.387-.337-.735.637L12.002 7.5l.327-.284 6.691-5.8Zm-7.348 5.8L12 7.5 5.326 1.717l-.735-.637.389.337 6.691 5.8ZM5.116.576l-.023.01a.993.993 0 0 1 .023-.01Zm13.792.01-.024-.01a.998.998 0 0 0 .024.01ZM5.5 11.5h13-13Zm13-10Zm-13 0Z" stroke="#000"/></g><defs><filter id="a" x="0" y="0" width="24" height="20" filterUnits="userSpaceOnUse" color-interpolation-filters="sRGB"><feFlood flood-opacity="0" result="BackgroundImageFix"/><feColorMatrix in="SourceAlpha" values="0 0 0 0 0 0 0 0 0 0 0 0 0 0 0 0 0 0 127 0" result="hardAlpha"/><feOffset dy="4"/><feGaussianBlur stdDeviation="2"/><feComposite in2="hardAlpha" operator="out"/><feColorMatrix values="0 0 0 0 0 0 0 0 0 0 0 0 0 0 0 0 0 0 0.25 0"/><feBlend in2="BackgroundImageFix" result="effect1_dropShadow_2289_0"/><feBlend in="SourceGraphic" in2="effect1_dropShadow_2289_0" result="shape"/></filter></defs></svg>