<svg aria-hidden="true" style="position: absolute; width: 0; height: 0; overflow: hidden;" version="1.1" xmlns="http://www.w3.org/2000/svg" xmlns:xlink="http://www.w3.org/1999/xlink">
<defs>
<symbol id="icon-envelop" viewBox="0 0 32 32">
<path d="M29 4h-26c-1.65 0-3 1.35-3 3v20c0 1.65 1.35 3 3 3h26c1.65 0 3-1.35 3-3v-20c0-1.65-1.35-3-3-3zM12.461 17.199l-8.461 6.59v-15.676l8.461 9.086zM5.512 8h20.976l-10.488 7.875-10.488-7.875zM12.79 17.553l3.21 3.447 3.21-3.447 6.58 8.447h-19.579l6.58-8.447zM19.539 17.199l8.461-9.086v15.676l-8.461-6.59z"></path>
</symbol>
<symbol id="icon-mobile" viewBox="0 0 32 32">
<path d="M23 0h-14c-1.65 0-3 1.35-3 3v26c0 1.65 1.35 3 3 3h14c1.65 0 3-1.35 3-3v-26c0-1.65-1.35-3-3-3zM12 1.5h8v1h-8v-1zM16 30c-1.105 0-2-0.895-2-2s0.895-2 2-2 2 0.895 2 2-0.895 2-2 2zM24 24h-16v-20h16v20z"></path>
</symbol>
<symbol id="icon-facebook" viewBox="0 0 32 32">
<path d="M19 6h5v-6h-5c-3.86 0-7 3.14-7 7v3h-4v6h4v16h6v-16h5l1-6h-6v-3c0-0.542 0.458-1 1-1z"></path>
</symbol>
<symbol id="icon-instagram" viewBox="0 0 32 32">
<path d="M16 2.881c4.275 0 4.781 0.019 6.462 0.094 1.563 0.069 2.406 0.331 2.969 0.55 0.744 0.288 1.281 0.638 1.837 1.194 0.563 0.563 0.906 1.094 1.2 1.838 0.219 0.563 0.481 1.412 0.55 2.969 0.075 1.688 0.094 2.194 0.094 6.463s-0.019 4.781-0.094 6.463c-0.069 1.563-0.331 2.406-0.55 2.969-0.288 0.744-0.637 1.281-1.194 1.837-0.563 0.563-1.094 0.906-1.837 1.2-0.563 0.219-1.413 0.481-2.969 0.55-1.688 0.075-2.194 0.094-6.463 0.094s-4.781-0.019-6.463-0.094c-1.563-0.069-2.406-0.331-2.969-0.55-0.744-0.288-1.281-0.637-1.838-1.194-0.563-0.563-0.906-1.094-1.2-1.837-0.219-0.563-0.481-1.413-0.55-2.969-0.075-1.688-0.094-2.194-0.094-6.463s0.019-4.781 0.094-6.463c0.069-1.563 0.331-2.406 0.55-2.969 0.288-0.744 0.638-1.281 1.194-1.838 0.563-0.563 1.094-0.906 1.838-1.2 0.563-0.219 1.412-0.481 2.969-0.55 1.681-0.075 2.188-0.094 6.463-0.094zM16 0c-4.344 0-4.887 0.019-6.594 0.094-1.7 0.075-2.869 0.35-3.881 0.744-1.056 0.412-1.95 0.956-2.837 1.85-0.894 0.888-1.438 1.781-1.85 2.831-0.394 1.019-0.669 2.181-0.744 3.881-0.075 1.713-0.094 2.256-0.094 6.6s0.019 4.887 0.094 6.594c0.075 1.7 0.35 2.869 0.744 3.881 0.413 1.056 0.956 1.95 1.85 2.837 0.887 0.887 1.781 1.438 2.831 1.844 1.019 0.394 2.181 0.669 3.881 0.744 1.706 0.075 2.25 0.094 6.594 0.094s4.888-0.019 6.594-0.094c1.7-0.075 2.869-0.35 3.881-0.744 1.050-0.406 1.944-0.956 2.831-1.844s1.438-1.781 1.844-2.831c0.394-1.019 0.669-2.181 0.744-3.881 0.075-1.706 0.094-2.25 0.094-6.594s-0.019-4.887-0.094-6.594c-0.075-1.7-0.35-2.869-0.744-3.881-0.394-1.063-0.938-1.956-1.831-2.844-0.887-0.887-1.781-1.438-2.831-1.844-1.019-0.394-2.181-0.669-3.881-0.744-1.712-0.081-2.256-0.1-6.6-0.1v0z"></path>
<path d="M16 7.781c-4.537 0-8.219 3.681-8.219 8.219s3.681 8.219 8.219 8.219 8.219-3.681 8.219-8.219c0-4.537-3.681-8.219-8.219-8.219zM16 21.331c-2.944 0-5.331-2.387-5.331-5.331s2.387-5.331 5.331-5.331c2.944 0 5.331 2.387 5.331 5.331s-2.387 5.331-5.331 5.331z"></path>
<path d="M26.462 7.456c0 1.060-0.859 1.919-1.919 1.919s-1.919-0.859-1.919-1.919c0-1.060 0.859-1.919 1.919-1.919s1.919 0.859 1.919 1.919z"></path>
</symbol>
<symbol id="icon-twitter" viewBox="0 0 32 32">
<path d="M32 7.075c-1.175 0.525-2.444 0.875-3.769 1.031 1.356-0.813 2.394-2.1 2.887-3.631-1.269 0.75-2.675 1.3-4.169 1.594-1.2-1.275-2.906-2.069-4.794-2.069-3.625 0-6.563 2.938-6.563 6.563 0 0.512 0.056 1.012 0.169 1.494-5.456-0.275-10.294-2.888-13.531-6.862-0.563 0.969-0.887 2.1-0.887 3.3 0 2.275 1.156 4.287 2.919 5.463-1.075-0.031-2.087-0.331-2.975-0.819 0 0.025 0 0.056 0 0.081 0 3.181 2.263 5.838 5.269 6.437-0.55 0.15-1.131 0.231-1.731 0.231-0.425 0-0.831-0.044-1.237-0.119 0.838 2.606 3.263 4.506 6.131 4.563-2.25 1.762-5.075 2.813-8.156 2.813-0.531 0-1.050-0.031-1.569-0.094 2.913 1.869 6.362 2.95 10.069 2.95 12.075 0 18.681-10.006 18.681-18.681 0-0.287-0.006-0.569-0.019-0.85 1.281-0.919 2.394-2.075 3.275-3.394z"></path>
</symbol>
<symbol id="icon-linkedin" viewBox="0 0 32 32">
<path d="M29 0h-26c-1.65 0-3 1.35-3 3v26c0 1.65 1.35 3 3 3h26c1.65 0 3-1.35 3-3v-26c0-1.65-1.35-3-3-3zM12 26h-4v-14h4v14zM10 10c-1.106 0-2-0.894-2-2s0.894-2 2-2c1.106 0 2 0.894 2 2s-0.894 2-2 2zM26 26h-4v-8c0-1.106-0.894-2-2-2s-2 0.894-2 2v8h-4v-14h4v2.481c0.825-1.131 2.087-2.481 3.5-2.481 2.488 0 4.5 2.238 4.5 5v9z"></path>
</symbol>
<symbol id="icon-antenna-1" >
<path d="m67.316 48.339-18.47-18.605 2.05-10.097a4.655 4.655 0 0 0 1.66.319h.014a4.723 4.723 0 1 0-4.394-3.14l-10.85 1.325L19.628.35a1.166 1.166 0 0 0-.824-.35c-.306.002-.6.124-.817.34L14.68 3.63a1.167 1.167 0 0 0 0 1.65l1.78 1.805a32.686 32.686 0 0 0 5.511 38.638c.094.09.202.161.32.213a6.77 6.77 0 0 0-.114 1.197v13.534h-14A5.84 5.84 0 0 0 2.342 66.5v2.333c0 .645.523 1.167 1.167 1.167h53.667c.644 0 1.166-.522 1.166-1.167V66.5a5.84 5.84 0 0 0-5.833-5.833h-14v-5.998c2.193.46 4.428.694 6.669.7a32.483 32.483 0 0 0 15.4-3.901l1.79 1.8c.216.221.513.347.823.35.306-.002.6-.124.817-.34l3.308-3.29a1.167 1.167 0 0 0 0-1.65ZM50.925 13.635a2.333 2.333 0 1 1 1.645 3.987h-.008a2.333 2.333 0 0 1-1.633-3.987h-.004ZM48.178 21.3l-1.309 6.444-2.571-2.587 3.88-3.857Zm-1.325-1.973-4.2 4.176-3.25-3.267 7.45-.909ZM52.509 63a3.5 3.5 0 0 1 3.5 3.5v1.167H4.676V66.5a3.5 3.5 0 0 1 3.5-3.5h44.333Zm-16.333-4.667v2.334H24.509v-2.334h11.667ZM24.509 56v-8.867c0-2.83 2.617-5.133 5.833-5.133 3.217 0 5.834 2.303 5.834 5.133V56H24.509Zm14-3.71v-5.157c0-4.117-3.663-7.466-8.167-7.466a8.312 8.312 0 0 0-7.177 3.907A30.34 30.34 0 0 1 18.18 8.82l40.692 40.925a30.233 30.233 0 0 1-20.363 2.544Zm24.695-1.496-1.644-1.653L18.792 6.116l-1.65-1.655 1.65-1.645L36.15 20.272c.008 0 .013.015.021.021l28.688 28.856-1.655 1.645Z" fill="#212121"/>
<path d="M30.353 44.333h-.01a3.5 3.5 0 0 0-.011 7h.01a3.5 3.5 0 1 0 .01-7Zm.816 4.328a1.167 1.167 0 1 1-.827-1.994 1.166 1.166 0 0 1 .817 1.993h.01Z" fill="#2196F3"/>
</symbol>
<symbol id="icon-clock-1">
<path d="M68.461 33.471C68.458 14.982 53.466-.004 34.975 0 16.485.004 1.5 14.996 1.504 33.486A33.479 33.479 0 0 0 24.799 65.37c.133.042.27.063.41.063.263 0 .521-.071.748-.205.296-.175.516-.453.62-.78l8.454-26.797a4.184 4.184 0 1 0-1.837-7.95L22.025 18.53a1.395 1.395 0 0 0-1.972 1.973l11.163 11.176a4.104 4.104 0 0 0 1.173 5.051l-8.055 25.535C8.414 56.4.262 38.74 6.126 22.82 11.991 6.9 29.65-1.252 45.571 4.613c15.92 5.864 24.072 23.524 18.207 39.444A30.72 30.72 0 0 1 47.455 61.5l-.87-4.1a1.394 1.394 0 0 0-2.294-.752l-8.393 7.494a1.394 1.394 0 0 0 .505 2.372l10.716 3.42a1.394 1.394 0 0 0 1.791-1.619l-.855-4.022a33.37 33.37 0 0 0 20.406-30.82Zm-33.478-1.394a1.395 1.395 0 1 1 0 2.79 1.395 1.395 0 0 1 0-2.79Zm4.594 32.515 4.778-4.262 1.319 6.213-6.097-1.951Z" fill="#212121"/>
<path d="M33.588 6.967v2.79a1.395 1.395 0 1 0 2.79 0v-2.79a1.395 1.395 0 0 0-2.79 0ZM8.479 32.077a1.395 1.395 0 0 0 0 2.79h2.79a1.395 1.395 0 1 0 0-2.79h-2.79ZM61.486 34.867a1.395 1.395 0 1 0 0-2.79h-2.79a1.395 1.395 0 0 0 0 2.79h2.79Z" fill="#2196F3"/></g><defs><clipPath id="a">
<path fill="#fff" d="M0 0h70v70H0z"/></clipPath>
</symbol>
<symbol id="icon-diagram-1" >
<path d="M32.65 32.735h2.332V43.23H32.65V32.735ZM41.978 37.4h2.332v5.83h-2.332V37.4ZM23.321 40.898h2.332v2.332h-2.332v-2.332ZM16.325 39.731h2.332v3.498h-2.332v-3.498Z" fill="#2196F3"/>
<path d="M3.498 61.886h55.97a3.498 3.498 0 0 0 3.499-3.498v-4.664a3.498 3.498 0 0 0-3.498-3.498h-1.166v-29.08l6.623-6.274a3.518 3.518 0 1 0-1.633-1.668l-4.99 4.73v-2.69a3.498 3.498 0 0 0-3.498-3.498H8.162a3.498 3.498 0 0 0-3.498 3.498v34.982H3.498A3.498 3.498 0 0 0 0 53.724v4.664a3.498 3.498 0 0 0 3.498 3.498ZM66.465 10.58a1.166 1.166 0 1 1 0 2.332 1.166 1.166 0 0 1 0-2.332ZM6.996 15.244c0-.644.522-1.166 1.166-1.166h46.643c.644 0 1.166.522 1.166 1.166v4.897l-2.332 2.216v-4.78c0-.645-.523-1.167-1.167-1.167H10.495c-.644 0-1.167.522-1.167 1.166v29.152c0 .644.523 1.166 1.167 1.166h41.977c.645 0 1.167-.522 1.167-1.166V25.565l2.332-2.21v26.87H6.996v-34.98Zm10.495 15.159a3.498 3.498 0 1 0 2.422 6.012l4.053 2.034c.471.235 1.042.125 1.392-.268l8.616-9.694 8.47 6.347c.455.34 1.089.304 1.501-.086l7.361-6.973v17.787H11.661v-26.82h39.645v5.82l-8.25 7.813-8.54-6.403a1.167 1.167 0 0 0-1.572.157l-8.734 9.828-3.265-1.633c.023-.14.038-.281.044-.423a3.498 3.498 0 0 0-3.498-3.498Zm1.166 3.498a1.166 1.166 0 1 1-2.332 0 1.166 1.166 0 0 1 2.332 0Zm6.996 18.657h11.66v1.166c0 .644-.521 1.166-1.165 1.166h-9.329a1.166 1.166 0 0 1-1.166-1.166v-1.166Zm-23.32 1.166c0-.644.521-1.166 1.165-1.166h19.823v1.166a3.498 3.498 0 0 0 3.498 3.498h9.329a3.498 3.498 0 0 0 3.498-3.498v-1.166h19.823c.644 0 1.166.522 1.166 1.166v4.664c0 .644-.522 1.166-1.166 1.166H3.499a1.166 1.166 0 0 1-1.167-1.166v-4.664Z" fill="#212121"/>
<path fill="#fff" d="M0 0h70v70H0z"/>
</symbol>
<symbol id="icon-astronaut-1">
<path d="M69.943 9.896a1.168 1.168 0 0 0-.941-.793l-4.18-.608-1.87-3.787c-.391-.798-1.7-.798-2.091 0l-1.87 3.787-4.18.608a1.167 1.167 0 0 0-.648 1.99l3.026 2.948-.714 4.162c-.075.438.105.88.463 1.142.363.263.837.296 1.23.088l3.738-1.966 3.738 1.966a1.168 1.168 0 0 0 1.693-1.23l-.714-4.162 3.025-2.949a1.17 1.17 0 0 0 .295-1.196ZM64.556 12.8c-.275.267-.4.655-.335 1.033l.417 2.437-2.188-1.15a1.164 1.164 0 0 0-1.088 0l-2.188 1.15.417-2.437a1.168 1.168 0 0 0-.334-1.033l-1.773-1.726 2.448-.356c.38-.055.708-.294.879-.639l1.094-2.216 1.094 2.216c.17.345.498.584.879.639l2.448.355-1.77 1.727ZM57.167 44.892h-2.333v2.334h2.333v-2.334ZM57.167 49.56h-2.333v2.332h2.333V49.56ZM59.5 47.226h-2.333v2.333H59.5v-2.333ZM54.834 47.226H52.5v2.333h2.334v-2.333ZM49 57.726h-2.333v2.333H49v-2.333ZM49 62.393h-2.333v2.333H49v-2.333ZM51.334 60.06H49v2.333h2.334v-2.334ZM46.667 60.06h-2.334v2.333h2.334v-2.334ZM35 53.06h-2.333v2.333H35v-2.334ZM35 57.726h-2.333v2.333H35v-2.333ZM37.333 55.392H35v2.334h2.333v-2.334ZM32.667 55.392h-2.334v2.334h2.334v-2.334ZM12.833 13.392H10.5v2.333h2.333v-2.333ZM12.833 18.059H10.5v2.333h2.333V18.06ZM15.166 15.725h-2.333v2.334h2.333v-2.334ZM10.5 15.725H8.166v2.334H10.5v-2.334Z" fill="#2196F3"/>
<path d="M54.064 30.974a3.88 3.88 0 0 0-2.6-1.541 3.886 3.886 0 0 0-2.93.77L45.794 32.3l-.001.002-4.151 3.1-2.97-1.184c5.296-2.376 8.998-7.674 8.998-13.825 0-8.363-6.83-15.167-15.227-15.167s-15.228 6.804-15.228 15.167c0 3.031.907 5.85 2.45 8.222l-6.046-.053h-.01c-.019 0-.034.01-.051.01a1.143 1.143 0 0 0-.34.069c-.028.01-.057.016-.084.029-.014.006-.028.007-.042.014l-7.072 3.491c-.001 0-.003 0-.003.002l-4.141 1.991a.898.898 0 0 0-.138.077A3.895 3.895 0 0 0 .43 39.268a3.884 3.884 0 0 0 2.31 1.944 3.891 3.891 0 0 0 3.016-.281l3.036-1.614 4.952-2.558 2.968-.017L4.808 48.588c0 .002-.002.002-.003.003l-2.928 2.916a3.607 3.607 0 0 0-1.073 2.577 3.647 3.647 0 0 0 3.652 3.64c.936 0 1.869-.355 2.582-1.062l2.875-2.863 3.808-2.843 1.97 1.962-3.853 3.837-.004.002-2.928 2.917a3.608 3.608 0 0 0-1.073 2.576c0 .973.38 1.889 1.073 2.579a3.65 3.65 0 0 0 2.58 1.061c.935 0 1.87-.354 2.582-1.061l2.93-2.917 4.686-4.667.002-.003 2.21-2.188-.01-.008c.015-.014.035-.019.049-.034l11.3-12.377 7.593 1.08c.055.008.11.012.165.012.14 0 .277-.034.41-.084.038-.014.071-.033.108-.051.042-.021.086-.033.126-.06l7.029-4.666c.026-.018.04-.046.064-.065.028-.022.063-.031.089-.056l2.78-2.605a3.892 3.892 0 0 0 .465-5.166ZM4.66 38.872a1.56 1.56 0 0 1-1.221.113 1.564 1.564 0 0 1-.465-2.755l2.874-1.383.692 2.022.29.85-2.17 1.153Zm7.65-3.998-3.387 1.75-.558-1.633-.402-1.174 4.434-2.189-.087 3.246Zm33.03-14.482c0 2.009-.48 3.904-1.31 5.599l-9.147-4.155a4.07 4.07 0 0 0-1.724-3.035l3.203-10.632c5.2 1.654 8.978 6.506 8.978 12.223Zm-25.788 0c0-7.076 5.784-12.834 12.894-12.834.553 0 1.094.047 1.63.115L30.943 18.07c-.042 0-.081-.013-.125-.013a4.094 4.094 0 0 0-4.096 4.084 4.095 4.095 0 0 0 4.096 4.083c1.52 0 2.832-.838 3.54-2.066l8.45 3.839c-2.352 3.164-6.114 5.227-10.362 5.227-7.11 0-12.894-5.757-12.894-12.833Zm13.03 1.75c0 .965-.792 1.75-1.764 1.75a1.759 1.759 0 0 1-1.762-1.75c0-.965.79-1.75 1.762-1.75s1.763.785 1.763 1.75ZM5.391 55.007a1.331 1.331 0 0 1-1.87.002 1.3 1.3 0 0 1 0-1.847l2.105-2.097L7.49 52.92l-2.097 2.089Zm7.03 8.167a1.33 1.33 0 0 1-1.87.002 1.299 1.299 0 0 1 0-1.847l2.106-2.098.88.876.983.978-2.099 2.09Zm7.616-7.588-.003.003-3.86 3.85-.882-.877-.982-.977 3.857-3.84v-.001l.004-.002c.087-.088.142-.193.196-.297.015-.03.044-.056.057-.087.036-.09.042-.187.056-.281.007-.054.03-.104.03-.16 0-.077-.028-.153-.044-.23-.014-.07-.014-.141-.041-.209a1.167 1.167 0 0 0-.2-.3c-.022-.027-.03-.06-.054-.084h-.002s0-.003-.002-.004l-3.515-3.5c-.037-.038-.085-.053-.127-.084a1.116 1.116 0 0 0-.19-.127 1.084 1.084 0 0 0-.204-.07 1.12 1.12 0 0 0-.226-.044 1.133 1.133 0 0 0-.209.01c-.078.01-.151.02-.227.045a1.08 1.08 0 0 0-.206.098c-.044.024-.093.033-.133.063l-3.88 2.896-1.97-1.963 5.248-5.22 9.538 9.382-2.029 2.01Zm14.917-15.349c-.034-.004-.066.008-.1.006a1.148 1.148 0 0 0-.252.015 1.076 1.076 0 0 0-.404.15 1.12 1.12 0 0 0-.181.134c-.028.024-.062.036-.088.064L23.653 51.862l-9.468-9.311 6.197-6.165a1.168 1.168 0 0 0-.83-1.993l-4.854.028.061-3.516 6.79.058a15.2 15.2 0 0 0 10.897 4.596c.957 0 1.89-.1 2.799-.268.087.07.174.14.283.185l5.272 2.1.333 1.66.39 1.936-6.569-.935Zm8.84.39-.685-3.408 3.164-2.363.828 1.1 1.242 1.65-4.55 3.02Zm8.21-6.193-1.832 1.718-2.037-2.705 1.818-1.394c.34-.261.768-.367 1.188-.313.422.06.796.28 1.05.622a1.562 1.562 0 0 1-.187 2.072Z" fill="#212121"/>
<path d="m29.755 40.565-4.688-4.667a1.166 1.166 0 0 0-1.646 0l-4.687 4.667a1.172 1.172 0 0 0 0 1.654l4.686 4.667a1.166 1.166 0 0 0 1.647 0l4.688-4.667a1.167 1.167 0 0 0 0-1.654Zm-5.51 3.848-3.034-3.02 3.033-3.021 3.035 3.02-3.035 3.02ZM37.547 11.092l-.564 2.266c.156.039 3.801.988 3.801 4.7h2.334c0-4.412-3.644-6.486-5.571-6.966ZM43.118 20.392h-2.334v2.333h2.334v-2.333Z" fill="#212121"/>
</symbol>
<symbol id="icon-logo-1" >
<path fill-rule="evenodd" clip-rule="evenodd" d="m38 7.713 7.008 6.634L32 14.34v32.187h34V34.22l7 6.627V7.713H38Zm27.692 25.728-19.87-18.81h19.87v18.81Zm-6.169 8.378H37.38V20.17h1.565v20.182h20.578v1.466ZM42.61 50.812l-.818 1.685-.818-1.685h-.686l1.194 2.246v1.309h.62v-1.309l1.191-2.246h-.683Zm1.028 3.555.288-.828h1.377l.29.828h.645l-1.345-3.555h-.555l-1.342 3.555h.642Zm.976-2.8.515 1.474h-1.03l.515-1.474Zm3.257 1.389a.808.808 0 0 0-.134.451c0 .3.105.543.315.73.211.186.493.279.844.279.352 0 .655-.095.909-.286l.2.237h.688l-.522-.618c.205-.28.307-.639.307-1.076h-.515c0 .239-.05.456-.149.651l-.686-.81.242-.176a1.34 1.34 0 0 0 .369-.371.785.785 0 0 0 .112-.41.732.732 0 0 0-.249-.564.895.895 0 0 0-.635-.23c-.286 0-.514.082-.683.245-.17.16-.254.38-.254.659 0 .114.027.232.08.354.056.122.153.27.29.444-.263.189-.44.352-.529.49Zm1.604.786a.905.905 0 0 1-.561.2.584.584 0 0 1-.425-.154.533.533 0 0 1-.159-.4c0-.19.098-.36.293-.508l.076-.054.776.916Zm-.637-1.575c-.168-.206-.252-.378-.252-.515 0-.119.035-.217.103-.295a.348.348 0 0 1 .276-.117.37.37 0 0 1 .266.1c.07.065.105.144.105.236a.44.44 0 0 1-.151.345l-.076.06-.271.186Zm5.786 1.931c.244-.213.384-.51.42-.888h-.615c-.033.254-.11.435-.232.544-.122.11-.305.164-.547.164-.265 0-.467-.101-.605-.303-.137-.202-.206-.495-.206-.879v-.315c.004-.38.077-.666.22-.862.145-.197.352-.295.62-.295.231 0 .406.057.525.17.12.113.195.297.225.553h.615c-.04-.39-.178-.69-.417-.904-.24-.213-.555-.32-.948-.32-.291 0-.548.07-.771.208a1.346 1.346 0 0 0-.51.59 2.08 2.08 0 0 0-.179.887v.332c.005.327.066.614.183.862.118.247.284.438.498.574.217.133.467.2.75.2.405 0 .73-.106.974-.318Zm3.63-.498c.12-.263.181-.57.181-.918v-.197a2.148 2.148 0 0 0-.185-.911 1.355 1.355 0 0 0-.52-.6c-.224-.14-.48-.21-.77-.21-.29 0-.546.07-.771.212-.223.14-.396.342-.52.608a2.174 2.174 0 0 0-.183.918v.2c.002.34.063.64.185.9.124.261.298.462.523.604.226.14.483.21.771.21.292 0 .549-.07.772-.21.224-.142.397-.344.517-.606Zm-.661-2.009c.15.21.224.512.224.906v.185c0 .4-.074.705-.222.913-.146.209-.356.313-.63.313a.738.738 0 0 1-.634-.32c-.152-.213-.227-.515-.227-.906v-.205c.003-.382.08-.678.229-.886a.73.73 0 0 1 .627-.315c.274 0 .485.105.633.315Z" fill="#AFB1B8"/>
</symbol>
<symbol id="icon-logo1">
<svg width="106" height="61" fill="none" xmlns="http://www.w3.org/2000/svg">
<path fill-rule="evenodd" clip-rule="evenodd" d="m38 7.713 7.008 6.634L32 14.34v32.187h34V34.22l7 6.627V7.713H38Zm27.692 25.728-19.87-18.81h19.87v18.81Zm-6.169 8.378H37.38V20.17h1.565v20.182h20.578v1.466ZM42.61 50.812l-.818 1.685-.818-1.685h-.686l1.194 2.246v1.309h.62v-1.309l1.191-2.246h-.683Zm1.028 3.555.288-.828h1.377l.29.828h.645l-1.345-3.555h-.555l-1.342 3.555h.642Zm.976-2.8.515 1.474h-1.03l.515-1.474Zm3.257 1.389a.808.808 0 0 0-.134.451c0 .3.105.543.315.73.211.186.493.279.844.279.352 0 .655-.095.909-.286l.2.237h.688l-.522-.618c.205-.28.307-.639.307-1.076h-.515c0 .239-.05.456-.149.651l-.686-.81.242-.176a1.34 1.34 0 0 0 .369-.371.785.785 0 0 0 .112-.41.732.732 0 0 0-.249-.564.895.895 0 0 0-.635-.23c-.286 0-.514.082-.683.245-.17.16-.254.38-.254.659 0 .114.027.232.08.354.056.122.153.27.29.444-.263.189-.44.352-.529.49Zm1.604.786a.905.905 0 0 1-.561.2.584.584 0 0 1-.425-.154.533.533 0 0 1-.159-.4c0-.19.098-.36.293-.508l.076-.054.776.916Zm-.637-1.575c-.168-.206-.252-.378-.252-.515 0-.119.035-.217.103-.295a.348.348 0 0 1 .276-.117.37.37 0 0 1 .266.1c.07.065.105.144.105.236a.44.44 0 0 1-.151.345l-.076.06-.271.186Zm5.786 1.931c.244-.213.384-.51.42-.888h-.615c-.033.254-.11.435-.232.544-.122.11-.305.164-.547.164-.265 0-.467-.101-.605-.303-.137-.202-.206-.495-.206-.879v-.315c.004-.38.077-.666.22-.862.145-.197.352-.295.62-.295.231 0 .406.057.525.17.12.113.195.297.225.553h.615c-.04-.39-.178-.69-.417-.904-.24-.213-.555-.32-.948-.32-.291 0-.548.07-.771.208a1.346 1.346 0 0 0-.51.59 2.08 2.08 0 0 0-.179.887v.332c.005.327.066.614.183.862.118.247.284.438.498.574.217.133.467.2.75.2.405 0 .73-.106.974-.318Zm3.63-.498c.12-.263.181-.57.181-.918v-.197a2.148 2.148 0 0 0-.185-.911 1.355 1.355 0 0 0-.52-.6c-.224-.14-.48-.21-.77-.21-.29 0-.546.07-.771.212-.223.14-.396.342-.52.608a2.174 2.174 0 0 0-.183.918v.2c.002.34.063.64.185.9.124.261.298.462.523.604.226.14.483.21.771.21.292 0 .549-.07.772-.21.224-.142.397-.344.517-.606Zm-.661-2.009c.15.21.224.512.224.906v.185c0 .4-.074.705-.222.913-.146.209-.356.313-.63.313a.738.738 0 0 1-.634-.32c-.152-.213-.227-.515-.227-.906v-.205c.003-.382.08-.678.229-.886a.73.73 0 0 1 .627-.315c.274 0 .485.105.633.315Z" fill="#AFB1B8"/></svg>
</symbol>




</svg>
</svg>
</defs>
</svg>